<?xml version="1.0" encoding="UTF-8" standalone="no"?>
<!-- Created with Inkscape (http://www.inkscape.org/) -->

<svg
   width="217.00006"
   height="217"
   viewBox="0 0 217.00006 217"
   version="1.1"
   id="svg1"
   xml:space="preserve"
   xmlns="http://www.w3.org/2000/svg"
   xmlns:svg="http://www.w3.org/2000/svg"><defs
     id="defs1" /><g
     id="layer1"
     transform="translate(-963.90924,-222.58691)"><path
       style="fill:#000000"
       d="m 1053.8323,436.66383 c -2.6269,-2.62693 -2.923,-3.57699 -2.923,-9.37755 0,-6.9549 -0.614,-7.97487 -5.5,-9.13734 -1.65,-0.39257 -6.7574,-2.47144 -11.3497,-4.61973 -9.2415,-4.32319 -9.5457,-4.2943 -15.0517,1.42942 -4.2332,4.40053 -7.8733,5.30357 -12.5098,3.10341 -4.2905,-2.03597 -20.8258,-19.58471 -21.77786,-23.11261 -0.96874,-3.5897 0.64623,-7.18767 5.42113,-12.0777 l 4.11595,-4.21518 -3.58026,-7.78482 c -1.96914,-4.28165 -4.1311,-9.58482 -4.80436,-11.78482 -1.85158,-6.05043 -2.51991,-6.5 -9.66282,-6.5 -5.80056,0 -6.75062,-0.29614 -9.37755,-2.92308 l -2.92308,-2.92307 v -15.65385 -15.65385 l 2.92308,-2.92307 c 2.62693,-2.62694 3.57699,-2.92308 9.37755,-2.92308 7.37221,0 7.7164,-0.26979 10.20623,-8 0.97432,-3.025 3.05887,-8.07467 4.63232,-11.22148 1.57345,-3.14682 2.86082,-5.9786 2.86082,-6.29284 0,-0.31425 -2.08637,-2.80185 -4.63637,-5.52801 -3.95432,-4.22749 -4.63636,-5.5594 -4.63636,-9.05404 0,-3.8744 0.58671,-4.68592 10.78058,-14.9115 6.4569,-6.477 11.8053,-11.01001 13.3357,-11.30256 3.7031,-0.70788 7.0898,0.8733 11.8716,5.54255 l 4.2152,4.11595 7.7848,-3.58026 c 4.2817,-1.96914 9.5849,-4.1311 11.7849,-4.80435 6.0504,-1.85159 6.5,-2.51991 6.5,-9.66283 0,-5.80056 0.2961,-6.75062 2.923,-9.37755 l 2.9231,-2.92308 h 15.6539 15.6538 l 2.9231,2.92308 c 2.6269,2.62693 2.9231,3.57699 2.9231,9.37755 0,7.14292 0.4495,7.81124 6.5,9.66283 2.2,0.67325 7.5031,2.83521 11.7848,4.80435 l 7.7848,3.58026 4.2152,-4.11595 c 4.7818,-4.66925 8.1685,-6.25043 11.8716,-5.54255 1.5304,0.29255 6.8788,4.82556 13.3357,11.30256 10.1939,10.22558 10.7806,11.0371 10.7806,14.9115 0,3.49464 -0.6821,4.82655 -4.6364,9.05404 -2.55,2.72616 -4.6363,5.21376 -4.6363,5.52801 0,0.31424 1.2873,3.14602 2.8608,6.29284 1.5734,3.14681 3.658,8.19648 4.6323,11.22148 2.4898,7.73021 2.834,8 10.2062,8 5.8006,0 6.7507,0.29614 9.3776,2.92308 l 2.9231,2.92307 v 15.65385 15.65385 l -2.9231,2.92307 c -2.6269,2.62694 -3.577,2.92308 -9.3776,2.92308 -7.1429,0 -7.8112,0.44957 -9.6628,6.5 -0.6732,2.2 -2.8352,7.50317 -4.8043,11.78482 l -3.5803,7.78482 4.1159,4.21518 c 4.6917,4.80476 6.2504,8.16887 5.5303,11.93568 -0.6323,3.30813 -18.7463,22.239 -22.7277,23.75272 -4.1543,1.57948 -7.7538,0.46855 -11.6691,-3.6015 -5.506,-5.72372 -5.8101,-5.75261 -15.0517,-1.42942 -4.5923,2.14829 -9.6996,4.22716 -11.3496,4.61973 -4.8861,1.16247 -5.5,2.18244 -5.5,9.13734 0,5.80056 -0.2962,6.75062 -2.9231,9.37755 l -2.9231,2.92308 h -15.6538 -15.6539 z m 33.1401,-11.81356 c 0.6863,-8.81985 2.4761,-11.12244 10.6477,-13.69829 3.1366,-0.98874 8.9858,-3.35592 12.9981,-5.2604 9.0005,-4.27217 11.6568,-3.91346 18.5134,2.50005 l 4.8883,4.57245 10.1706,-10.17057 10.1705,-10.17057 -4.1091,-4.26801 c -7.4896,-7.77933 -7.7352,-9.41867 -2.9169,-19.47277 1.8842,-3.93158 4.2158,-9.65462 5.1814,-12.71788 2.5324,-8.03371 4.8657,-9.83017 13.6562,-10.51423 l 7.2367,-0.56314 v -14 -14 l -7.2367,-0.56314 c -8.7905,-0.68406 -11.1238,-2.48052 -13.6562,-10.51423 -0.9656,-3.06325 -3.2972,-8.7863 -5.1814,-12.71788 -4.8183,-10.0541 -4.5727,-11.69343 2.9169,-19.47276 l 4.1091,-4.26802 -10.2078,-10.20787 -10.2079,-10.20788 -4.268,4.1091 c -7.7794,7.48967 -9.4187,7.73523 -19.4728,2.91694 -3.9316,-1.88416 -9.6546,-4.21579 -12.7179,-5.18139 -8.0337,-2.53241 -9.8301,-4.86571 -10.5142,-13.65622 l -0.5631,-7.23665 h -14 -14 l -0.5632,7.23665 c -0.6872,8.83131 -2.4775,11.12618 -10.6907,13.70412 -3.1604,0.99195 -8.7724,3.32358 -12.4712,5.18139 -9.6535,4.84876 -11.7589,4.52936 -19.543,-2.96484 l -4.268,-4.1091 -10.2079,10.20788 -10.20783,10.20787 4.1091,4.26802 c 7.48963,7.77933 7.73523,9.41866 2.91694,19.47276 -1.88416,3.93158 -4.21579,9.65463 -5.1814,12.71788 -2.5324,8.03371 -4.86571,9.83017 -13.65622,10.51423 l -7.23664,0.56314 v 14 14 l 7.23664,0.56314 c 8.79051,0.68406 11.12382,2.48052 13.65622,10.51423 0.96561,3.06326 3.29724,8.7863 5.1814,12.71788 4.81829,10.0541 4.57269,11.69344 -2.91694,19.47277 l -4.1091,4.26801 10.17053,10.17057 10.1706,10.17057 4.8883,-4.57245 c 6.8566,-6.41351 9.513,-6.77222 18.5135,-2.50005 4.0123,1.90448 9.8614,4.27166 12.9981,5.2604 7.961,2.5095 9.9943,4.97639 10.4665,12.69863 0.2097,3.42996 0.5663,6.81156 0.7923,7.51465 0.3132,0.97424 3.6869,1.21214 14.1815,1 l 13.7705,-0.27835 z m -21.0707,-41.27614 c -11.8698,-1.4485 -21.0494,-5.92367 -30.1269,-14.68726 -11.0596,-10.67712 -15.8656,-22.15044 -15.8656,-37.87613 0,-15.80086 5.5252,-28.34825 17.14,-38.92383 10.3248,-9.40106 21.061,-13.5 35.3601,-13.5 14.299,0 25.0352,4.09894 35.36,13.5 11.637,10.59584 17.14,23.11717 17.14,39 0,15.45355 -4.5148,26.47585 -15.3227,37.4088 -11.3629,11.4943 -27.477,17.0563 -43.6849,15.07842 z m 18.5076,-8.15863 c 11.7449,-2.97108 24.1213,-13.58397 29.7849,-25.54099 3.0668,-6.47452 3.2151,-7.34349 3.2151,-18.83946 0,-11.88852 -0.05,-12.15364 -3.7111,-19.5606 -4.6849,-9.47936 -12.9983,-17.6712 -22.5013,-22.17248 -6.4695,-3.06438 -7.3501,-3.21506 -18.7876,-3.21506 -11.4376,0 -12.3182,0.15068 -18.7876,3.21506 -9.5031,4.50128 -17.8165,12.69312 -22.5014,22.17248 -3.6607,7.40696 -3.711,7.67208 -3.711,19.5606 0,11.49597 0.1483,12.36494 3.215,18.83946 4.4248,9.34159 12.7221,17.83923 21.7244,22.24899 10.6879,5.23546 20.4254,6.23531 32.0606,3.292 z"
       id="path1" /></g></svg>
