<?xml version="1.0" encoding="UTF-8" standalone="no"?>
<!-- Created with Inkscape (http://www.inkscape.org/) -->

<svg
   width="346.32187"
   height="355.97665"
   viewBox="0 0 346.32188 355.97667"
   version="1.1"
   id="svg5"
   xml:space="preserve"
   xmlns="http://www.w3.org/2000/svg"
   xmlns:svg="http://www.w3.org/2000/svg"><defs
     id="defs2" /><g
     id="layer1"
     transform="translate(-235.63794,-108.06671)"><g
       id="g4160"
       transform="translate(-181.15815,-287.35431)"><path
         style="fill:#666666;stroke:#000000;stroke-width:2.568;stroke-dasharray:none"
         d="M 513.88903,735.96615 C 445.97852,709.3438 407.27699,647.07258 421.72555,587.674 c 3.08567,-12.68863 3.38247,-12.87254 17.14559,-10.662 34.69817,5.57302 68.47114,-19.7336 85.54522,-64.10033 3.31817,-8.62221 3.31817,-8.62221 14.74138,-5.32478 19.94526,5.75743 38.91337,2.47044 56.49144,-9.78944 8.302,-5.79026 8.302,-5.79026 17.19599,7.42191 12.50769,18.58036 27.36525,30.7167 43.68308,35.68235 11.95148,3.63693 11.95148,3.63693 12.04492,17.41693 0.27412,40.42655 18.74912,72.19253 50.07779,86.10396 30.1005,13.36605 -29.61839,90.23236 -79.36731,102.1565 -31.44695,7.53741 -92.2148,2.39423 -125.39462,-10.61295 z M 425.69338,561.30043 c -17.19765,-33.66295 -4.10839,-80.64632 28.61,-102.69447 29.12774,-19.62849 70.61555,20.2911 59.63417,57.38002 -10.84105,36.61499 -75.67886,69.90999 -88.24417,45.31445 z m 282.33683,63.94016 c -16.33245,-13.22733 -34.48339,-54.85248 -30.60094,-70.17638 7.5116,-29.64799 58.05938,-49.2646 72.44913,-28.11609 31.11923,45.73568 -4.22849,128.75995 -41.84819,98.29247 z M 537.11112,496.10949 c -22.79133,-10.56744 -49.35838,-51.3227 -41.6049,-63.8241 21.09393,-34.01097 71.14168,-46.2506 102.46586,-25.05895 45.71306,30.92611 -10.09056,112.42328 -60.86096,88.88305 z m 97.32022,19.07372 c -37.57587,-32.56973 -17.37742,-103.35544 27.54657,-96.53728 44.73329,6.78921 82.79615,71.45546 53.4912,90.87796 -29.69929,19.68386 -62.2361,21.95608 -81.03777,5.65932 z"
         id="path3080" /><g
         id="g3292"
         transform="matrix(0.25475615,0.10286693,-0.13590654,0.18788267,302.99533,433.69901)"
         style="fill:#484537;fill-opacity:0.446108"><path
           style="fill:#484537;fill-opacity:0.446108;stroke-width:2.62429"
           d="m 1214.8686,714.27083 c -38.4471,-12.0189 -69.1983,-57.82075 -63.4278,-94.47162 1.0184,-6.46747 4.1776,-20.90075 7.0205,-32.07393 6.5928,-25.90991 6.5318,-51.42588 -0.2381,-98.67617 -2.9724,-20.75237 -5.4912,-39.03575 -5.5969,-40.62969 -0.1038,-1.59393 -2.5817,7.95769 -5.5013,21.22585 -12.1537,55.22954 -56.4463,101.94582 -105.056,110.80503 -9.0482,1.64902 -9.0482,1.64902 -0.3989,-14.3939 23.6994,-43.95872 41.4256,-83.81147 44.9585,-101.07841 5.8833,-28.75175 5.9561,-28.52224 -8.4595,-26.6722 -12.2724,1.575 -12.2724,1.575 -36.0879,-21.00155 -13.0983,-12.41711 -26.7972,-23.85592 -30.4422,-25.41957 -12.79303,-5.48817 -52.90521,-34.93875 -69.86199,-51.29268 -44.48527,-42.90437 -55.53735,-68.06316 -59.32211,-135.03969 -1.51813,-26.86052 -2.29068,-30.08124 -9.63221,-40.15812 -16.13164,-22.14166 9.14906,-48.18105 83.1492,-85.644396 40.27254,-20.38828 108.05871,-20.42053 146.19861,-0.0696 30.1547,16.09009 39.9432,16.21796 59.2502,0.77399 42.1325,-33.70294 86.9316,-33.16547 117.187,1.40584 12.3593,14.12284 23.86,13.30582 59.4197,-4.22116 25.1345,-12.38873 58.7727,-15.52933 107.5746,-10.04369 24.3556,2.73771 109.7304,59.074626 121.9673,80.483366 3.4666,6.06504 3.0816,7.15778 -5.7411,16.30179 -9.339,9.67878 -9.478,10.16276 -11.1681,38.81807 -5.1327,87.03035 -49.5142,152.63678 -127.0858,187.86333 -6.9595,3.16048 -14.268,8.57067 -16.2413,12.02273 -16.3207,28.55391 -44.7383,40.23082 -70.046,28.78211 -6.5536,-2.96474 -12.7411,-5.39045 -13.7502,-5.39045 -8.2036,0 11.7482,58.777 34.9444,102.9434 31.1412,59.2943 31.511,57.7931 -9.6234,39.08004 -40.9094,-18.61079 -65.3062,-47.33689 -77.2853,-90.99956 -7.3804,-26.89998 -7.3804,-26.89998 -5.768,4.84196 2.4924,49.06607 -3.0607,75.20782 -25.196,118.61816 -14.7728,28.97189 -19.5216,59.13675 -9.3097,59.13675 5.7417,0 13.5517,-16.83463 11.9902,-25.84494 -2.3231,-13.40429 19.6768,-42.71769 32.06,-42.71769 10.8045,0 22.1346,29.95223 19.9705,52.79665 -5.5667,58.77756 -34.817,84.20581 -80.4523,69.93985 z m 45.2427,-12.22015 c 20.558,-14.68188 31.7412,-50.32622 16.6745,-53.14762 -17.1969,-3.2204 -23.5911,-1.90353 -26.5876,5.47565 -1.5584,3.83822 -4.7753,8.98745 -7.1483,11.44269 -5.0062,5.17955 -3.5711,7.12536 8.2767,11.22297 8.6195,2.98103 8.6195,2.98103 -2.5408,3.17423 -35.9777,0.62275 -43.916,-35.21822 -18.5282,-83.65325 22.4837,-42.89451 24.3962,-52.30993 22.9436,-112.95365 -3.2936,-137.5098 -0.1401,-221.90962 6.6866,-179.02456 3.0325,19.04516 3.0325,19.04516 7.5511,2.53935 4.5183,-16.50578 4.5183,-16.50578 3.1569,3.06109 -0.749,10.76185 -3.8204,28.35654 -6.8256,39.09946 -7.4846,26.75565 -6.3658,39.80505 2.1344,24.89195 6.9778,-12.24273 23.3099,-26.42279 30.4324,-26.42279 10.5048,0 8.9266,-12.9769 -2.8548,-23.47033 -5.8915,-5.24771 -9.44,-9.54129 -7.8855,-9.54129 7.5986,0 2.7788,-32.95418 -10.734,-73.39353 -14.8939,-44.57146 -15.9809,-49.4065 -7.8724,-35.01928 5.4482,9.6672 5.4482,9.6672 14.8906,1.90449 5.1936,-4.26948 11.536,-7.68236 14.0946,-7.58422 5.5921,0.21453 16.7995,4.4674 12.4427,4.72179 -1.9736,0.11514 -2.6031,4.00206 -1.7764,10.97071 1.0907,9.19038 0.2351,11.70606 -5.757,16.94847 -3.8707,3.38591 -7.0377,4.81427 -7.0377,3.17418 0,-1.64009 -3.0209,-2.98199 -6.7133,-2.98199 -6.1757,0 -6.4949,0.55867 -3.9876,6.98321 1.4991,3.84079 3.2775,8.45147 3.9522,10.24594 0.9427,2.50771 2.8816,2.2475 8.3777,-1.12432 7.1505,-4.38706 7.1505,-4.38706 1.8355,5.62506 -4.6635,8.78438 -4.9219,11.4132 -2.1087,21.43917 1.764,6.28489 2.6234,17.97345 1.91,25.97453 -1.237,13.87736 4.3371,24.26269 13.2723,24.72807 3.8832,0.20231 11.1831,-20.85284 11.5439,-33.29564 0.4219,-14.54608 -0.4006,-15.17819 -14.5218,-11.16012 -5.1915,1.47713 -3.0719,-1.41844 9.0451,-12.3574 16.7324,-15.10557 18.027,-20.36935 10.0174,-40.72371 -1.0853,-2.75808 -0.173,-9.1548 2.0714,-14.5015 4.0134,-9.56665 4.0134,-9.56665 -10.0163,-23.93986 -16.1702,-16.56643 -20.1494,-23.07861 -27.364,-44.78267 -7.2609,-21.84399 -4.9302,-21.17834 7.6777,2.19288 10.872,20.15269 27.5529,38.82544 27.5529,30.84281 0,-43.02108 -72.1691,-117.098926 -109.7284,-112.630796 -44.0161,5.23617 -109.9477,71.995856 -109.9477,111.328666 0,6.51843 15.0104,-11.26284 24.7154,-29.2779 12.4474,-23.10561 14.5111,-24.6011 8.7612,-6.34837 -7.0277,22.30901 -10.5587,28.42078 -26.7343,46.27432 -15.3722,16.9667 -15.5123,17.26675 -11.6485,24.90583 3.3877,6.69821 3.3991,9.86878 0.083,23.70868 -3.5134,14.66442 5.7693,39.06218 14.8623,39.06218 4.6348,0 4.8907,-12.68515 0.4226,-20.94969 -5.4426,-10.06732 -4.3577,-12.03153 3.1375,-5.68039 4.135,3.50396 4.9109,2.94508 8.8096,-6.34837 4.0477,-9.64806 4.0102,-10.19061 -0.7047,-10.19061 -2.7391,0 -5.4629,1.35696 -6.0535,3.01549 -2.9674,8.33583 -13.0284,-8.35854 -12.5565,-20.83602 0.5852,-15.48342 13.0784,-18.49429 25.3391,-6.1068 6.4784,6.54494 6.4784,6.54494 11.9551,-3.1742 7.819,-13.8758 7.1947,-11.15152 -6.8331,29.81331 -13.0753,38.18301 -19.2855,78.5476 -12.0847,78.5476 1.7415,0 -1.8644,4.48071 -8.0127,9.95721 -13.7014,12.20355 -13.9655,20.38041 -0.7618,23.56657 4.972,1.19982 12.7285,6.56795 18.3061,12.66908 10.5281,11.51629 13.8435,1.65245 6.9784,-20.76062 -1.4851,-4.84852 -3.3103,-17.98214 -4.0558,-29.18582 -1.3557,-20.37029 -1.3557,-20.37029 3.2064,-3.86451 4.5617,16.50581 4.5617,16.50581 7.4457,0.81079 5.2531,-28.58818 8.9622,-16.36936 6.9824,23.00165 -0.4951,9.84603 -0.4951,9.84603 9.9075,7.61811 16.4405,-3.52115 52.6637,-2.57252 62.7908,1.64441 8.7754,3.654 8.3772,3.75358 -16.2723,4.06757 -31.4402,0.40056 -54.6473,6.84801 -55.967,15.54911 -1.0233,6.74625 0.5516,6.93628 15.7829,1.90451 15.4054,-5.0892 41.0746,-4.8659 53.6502,0.46667 10.0828,4.27571 10.0828,4.27571 -12.9695,5.96885 -50.8483,3.73473 -75.0024,18.84518 -30.5105,19.08703 19.0909,0.10384 26.2558,1.27848 36.6472,6.00842 12.6285,5.74812 22.0966,13.46596 11.2586,9.17739 -7.291,-2.88508 -50.4524,-4.83923 -62.0168,-2.80789 -8.8803,1.55986 -9.6194,2.38485 -9.6194,10.73765 0,8.13563 0.6201,8.90224 6.1494,7.60288 26.2593,-6.17109 34.8714,-6.92207 49.7816,-4.34133 22.1004,3.82536 22.6505,6.40699 1.5124,7.09678 -47.158,1.53902 -75.6814,18.43262 -31.1999,18.47869 19.4959,0.0204 26.5058,1.1481 37.8355,6.0874 18.7679,8.18232 20.1639,11.61919 3.0293,7.45759 -14.4933,-3.52008 -44.8328,-4.5091 -55.5821,-1.8118 -4.9402,1.23961 -6.1021,3.32813 -6.1021,10.96916 0,12.31693 0.8528,12.82947 14.1913,8.52675 13.169,-4.24833 40.997,-4.78896 51.6313,-1.00317 10.2809,3.65973 9.6635,3.95011 -9.8633,4.6417 -23.2051,0.82191 -54.2604,9.76005 -52.1133,14.99891 0.868,2.11781 1.5782,4.81722 1.5782,5.99869 0,1.18151 6.4987,1.52017 14.4415,0.75263 17.3536,-1.67702 41.9182,4.29124 49.3623,11.99325 5.0792,5.25503 5.0711,5.26186 -2.9128,2.39845 -8.3931,-3.01031 -50.7421,-3.93629 -55.4493,-1.21246 -7.0848,4.09994 -3.0243,16.69005 4.7284,14.66005 17.4588,-4.57157 60.6436,0.89489 60.3154,7.63492 -0.029,0.31345 -10.694,0.83395 -23.7307,1.15701 -31.2795,0.77512 -39.7513,3.07868 -40.7758,11.08754 -0.7604,5.94401 -0.071,6.27062 13.6305,6.45608 14.8872,0.20151 28.0856,4.95657 34.8075,12.5401 3.5129,3.96319 3.2586,4.1443 -2.9094,2.07196 -16.5505,-5.56049 -46.8735,-2.81325 -48.9549,4.43528 -1.9051,6.63529 -1.7497,6.71845 14.7111,7.87393 32.6499,2.29179 37.0569,8.15944 6.7582,8.9977 -24.3891,0.67474 -26.2598,1.10244 -27.7615,6.34841 -3.1672,11.06103 -2.2244,11.96891 12.5536,12.08778 20.6227,0.1656 36.4113,6.98915 16.9502,7.32524 -27.3164,0.47177 -33.9004,2.54374 -33.9004,10.66796 0,7.99495 2.3908,8.66854 27.1202,7.64021 15.1609,-0.63046 10.1566,3.02271 -11.2653,8.2236 -11.6141,2.81969 -14.3387,4.46393 -13.6922,8.26335 1.8044,10.60642 2.7927,11.0902 22.8385,11.18155 21.548,0.0982 19.3055,5.08974 -3.983,8.86511 -11.1002,1.79946 -11.7828,2.80929 -6.3947,9.45523 2.731,3.36872 7.7951,4.49565 20.9319,4.65783 17.3292,0.21413 17.3292,0.21413 5.3951,5.34146 -21.7241,9.33359 5.1678,18.95126 30.9186,11.05781 4.7871,-1.46728 4.7073,-1.16196 -0.6779,2.5989 -8.9622,6.25885 -7.5031,8.72081 5.168,8.72081 7.8172,0 13.9705,-1.92848 20.0835,-6.29402 z M 1073.7922,556.22841 c 21.0219,-13.09947 29.5815,-22.82707 44.9044,-51.03218 9.8137,-18.0636 9.4516,-16.65121 19.1506,-74.75283 7.4805,-44.81364 4.8416,-56.64234 -14.7533,-66.13002 -7.8191,-3.78595 -7.8191,-3.78595 -9.6317,13.3175 -10.7961,101.87905 -18.4477,125.57765 -59.4304,184.06604 -6.8814,9.82032 -3.0925,8.7718 19.7604,-5.46851 z m 291.7157,5.46851 c -43.394,-61.83749 -50.6472,-81.21442 -62.2182,-166.2188 -4.7381,-34.80719 -4.7381,-34.80719 -12.409,-31.09296 -18.8319,9.11816 -21.7737,21.42376 -14.4433,60.41522 15.8056,84.06961 30.2452,110.11482 74.4883,134.35715 20.7718,11.38162 20.7891,11.38459 14.5822,2.53939 z M 1085.9813,424.87097 c 11.0709,-4.9432 12.6797,-11.93643 14.0869,-61.23207 0.4882,-17.10249 1.5512,-32.1007 2.3622,-33.3294 0.8109,-1.22869 -0.4988,-7.65624 -2.9105,-14.28341 -3.1423,-8.6353 -3.9522,-16.88107 -2.8579,-29.10151 1.2536,-13.99995 0.6205,-18.34554 -3.536,-24.27848 -5.0888,-7.26317 -5.0575,-14.33785 0.1314,-29.82348 1.5901,-4.74589 1.0731,-10.39693 -1.6001,-17.49127 -3.4962,-9.27868 -3.469,-11.38129 0.238,-18.33796 2.3025,-4.32167 6.0364,-16.448 8.2973,-26.94739 2.4011,-11.15003 7.476,-24.24208 12.202,-31.47745 4.4499,-6.81318 7.6949,-12.75821 7.2112,-13.21112 -2.2213,-2.08008 -31.8734,-5.13474 -31.8734,-3.28358 0,1.14998 -9.4582,-2.02617 -21.0185,-7.05807 -16.1823,-7.044 -27.2582,-9.85287 -48.1387,-12.20829 -27.12058,-3.059286 -27.12058,-3.059286 -6.1619,-5.046506 25.8247,-2.44857 35.6821,-0.83213 51.2317,8.401236 18.8989,11.22208 60.6396,13.68527 70.2132,4.14341 9.2272,-9.19653 4.0321,-11.708826 -22.4016,-10.833106 -23.2803,0.771256 -24.3402,0.50546 -13.554,-3.39767 14.9928,-5.42519 -16.8313,-17.22362 -46.8539,-17.37055 -57.71165,-0.2825 -76.61366,4.76038 -122.68053,32.729146 -46.27204,28.09366 -53.49058,36.59601 -42.50787,50.06822 7.74822,9.5043 9.31634,13.56812 9.31634,24.1419 0,6.99261 0.91579,12.32356 2.03432,11.84654 1.11887,-0.47706 11.18718,-5.3016 22.37436,-10.72126 19.13693,-9.27084 51.97971,-21.95444 56.33723,-21.7568 1.08428,0.0492 -11.45272,6.63529 -27.86062,14.63579 -56.02793,27.31936 -54.23233,24.72375 -44.78539,64.72787 6.80683,28.82534 7.09641,29.16004 17.29255,19.98326 9.16082,-8.24517 55.03119,-35.9525 59.52069,-35.9525 1.49789,0 -5.91837,5.68238 -16.4802,12.6275 -42.57516,27.99538 -51.41129,38.42536 -43.27662,51.0825 12.97032,20.18061 11.2178,19.57259 24.17636,8.38853 15.51875,-13.39394 56.43738,-39.28923 56.43738,-35.71636 0,0.55543 -8.23758,6.78848 -18.30624,13.85116 -49.54147,34.75176 -49.7238,35.25447 -22.20137,61.19824 25.66767,24.19535 23.56692,23.60684 33.2173,9.30371 4.19404,-6.21614 15.59621,-19.06957 25.33831,-28.56319 11.0491,-10.76758 14.6889,-13.43994 9.6756,-7.10367 -12.213,15.43547 -35.85947,49.89728 -35.85947,52.26097 0,1.82579 30.91327,20.11068 34.00027,20.11068 0.6407,0 4.3867,-5.95322 8.3246,-13.22936 7.7283,-14.28005 36.0484,-57.8726 37.5975,-57.8726 0.5194,0 -6.7942,14.56953 -16.2517,32.37678 -25.1166,47.28906 -24.3376,43.96043 -13.4186,57.35038 18.4831,22.66476 27.862,27.12252 42.9198,20.39923 z m 287.7075,-4.4817 c 28.7883,-22.08776 28.9914,-24.75594 5.2807,-69.38989 -25.2976,-47.62123 -25.1125,-47.19762 -16.3686,-37.52449 5.5011,6.08605 23.6965,33.46081 44.6754,67.2149 2.2168,3.56705 33.0213,-10.62103 33.0213,-15.20922 0,-2.90001 -18.6299,-30.4625 -30.4156,-44.99958 -16.8485,-20.78107 -17.7872,-22.71716 -7.7797,-16.04508 7.9715,5.31499 32.2139,31.97536 44.0685,48.46439 4.1506,5.77328 48.3678,-27.10505 48.3678,-35.96459 0,-3.462 -28.67,-27.9108 -49.2862,-42.0296 -11.6061,-7.94833 -20.5829,-14.93748 -19.9487,-15.53142 2.2704,-2.12578 36.9932,17.76919 57.0207,32.67102 19.2296,14.3081 36.6227,9.27541 36.6227,-10.59684 0,-3.44302 -33.6903,-30.37927 -55.3523,-44.2556 -11.9047,-7.626 -20.7396,-13.86548 -19.6329,-13.86548 5.8599,0 44.9119,20.47821 61.1726,32.07809 20.3668,14.52898 20.7607,14.09525 29.7894,-32.78693 3.1748,-16.4873 -20.7441,-33.29495 -80.4105,-56.50347 -8.5644,-3.3313 -13.6649,-6.10521 -11.3346,-6.16427 7.7858,-0.19703 49.7638,14.28361 70.3443,24.26618 11.1872,5.42628 21.2557,10.25631 22.3745,10.73338 1.1186,0.47702 2.0338,-4.28255 2.0338,-10.57691 0,-9.12971 1.8863,-13.75799 9.3271,-22.88502 10.9305,-13.4078 6.8956,-18.35792 -38.0047,-46.62629 -47.1922,-29.711386 -72.2625,-36.624516 -131.1262,-36.158246 -22.6048,0.17909 -47.5898,12.41203 -36.3464,17.79561 7.2944,3.49273 6.3925,3.730186 -18.7585,4.938806 -26.4212,1.26964 -26.4212,1.26964 -20.3405,8.13387 8.1493,9.19881 45.5721,6.00879 69.5179,-5.92593 13.0179,-6.488166 17.1787,-7.258936 37.9687,-7.033536 19.8373,0.21495 45.1929,3.761446 32.841,4.593316 -32.7352,2.20446 -53.4222,6.247 -71.5487,13.98154 -25.369,10.82484 -32.806,13.12388 -30.333,9.37696 2.3125,-3.50293 -2.3041,-3.54759 -15.375,-0.14866 -10.1309,2.63433 -10.1309,2.63433 -3.1481,12.99115 3.9793,5.90217 8.6716,18.68899 10.9093,29.7283 2.1599,10.65431 5.264,23.56129 6.8977,28.68216 1.6338,5.1209 2.0807,12.54854 0.9927,16.50581 -2.5925,9.43191 -2.6122,17.03845 -0.086,33.14381 1.6691,10.63807 1.1486,14.5821 -2.6402,19.99573 -3.25,4.6448 -4.9394,12.91416 -5.4274,26.56835 -0.6061,16.96004 -1.9774,21.92958 -9.4893,34.39298 -6.9501,11.53011 -8.4583,16.43172 -7.2327,23.50301 0.8517,4.91407 0.4521,10.17162 -0.888,11.68347 -10.7199,12.09414 4.4041,48.56616 24.002,57.88201 24.0651,11.43922 20.4279,11.34346 34.0445,0.8963 z"
           id="path3287" /></g><g
         id="g3493"
         transform="translate(2)"><text
           xml:space="preserve"
           style="font-style:normal;font-variant:normal;font-weight:500;font-stretch:normal;font-size:17.6714px;font-family:'Noto Sans Mono';-inkscape-font-specification:'Noto Sans Mono, Medium';font-variant-ligatures:normal;font-variant-caps:normal;font-variant-numeric:normal;font-variant-east-asian:normal;fill:#000000;stroke:none;stroke-width:1.47262"
           x="707.91376"
           y="429.33469"
           id="text3084"
           transform="matrix(0.8269567,0.2014381,-0.27806247,1.14152,0,0)"><tspan
             id="tspan3082"
             x="707.91376"
             y="429.33469"
             style="fill:#000000;stroke-width:1.47262">Estampados y asesorias</tspan></text><text
           xml:space="preserve"
           style="font-style:normal;font-variant:normal;font-weight:500;font-stretch:normal;font-size:17.6714px;font-family:'Noto Sans Mono';-inkscape-font-specification:'Noto Sans Mono, Medium';font-variant-ligatures:normal;font-variant-caps:normal;font-variant-numeric:normal;font-variant-east-asian:normal;fill:#ffd42a;stroke:none;stroke-width:1.47262"
           x="707.12299"
           y="428.38879"
           id="text3088"
           transform="matrix(0.8269567,0.2014381,-0.27806247,1.14152,0,0)"><tspan
             id="tspan3086"
             x="707.12299"
             y="428.38879"
             style="stroke-width:1.47262">Estampados y asesorias</tspan></text><text
           xml:space="preserve"
           style="font-style:normal;font-variant:normal;font-weight:normal;font-stretch:normal;font-size:31.0938px;font-family:'Noto Sans Mono';-inkscape-font-specification:'Noto Sans Mono, Normal';font-variant-ligatures:normal;font-variant-caps:normal;font-variant-numeric:normal;font-variant-east-asian:normal;fill:#000000;stroke:none;stroke-width:2.59115"
           x="656.13715"
           y="436.62003"
           id="text3092"
           transform="matrix(0.88404936,0.21534529,-0.26010494,1.0677997,0,0)"><tspan
             id="tspan3090"
             x="656.13715"
             y="436.62003"
             style="font-style:normal;font-variant:normal;font-weight:normal;font-stretch:normal;font-size:31.0938px;font-family:'Noto Sans Mono';-inkscape-font-specification:'Noto Sans Mono, Normal';font-variant-ligatures:normal;font-variant-caps:normal;font-variant-numeric:normal;font-variant-east-asian:normal;fill:#000000;stroke:none;stroke-width:2.59115">STAMPY S.A.S.</tspan></text><text
           xml:space="preserve"
           style="font-style:normal;font-variant:normal;font-weight:normal;font-stretch:normal;font-size:31.0938px;font-family:'Noto Sans Mono';-inkscape-font-specification:'Noto Sans Mono, Normal';font-variant-ligatures:normal;font-variant-caps:normal;font-variant-numeric:normal;font-variant-east-asian:normal;fill:#ffd42a;stroke:none;stroke-width:2.59115"
           x="654.22516"
           y="435.43585"
           id="text3096"
           transform="matrix(0.88404936,0.21534529,-0.26010494,1.0677997,0,0)"><tspan
             id="tspan3094"
             x="654.22516"
             y="435.43585"
             style="font-style:normal;font-variant:normal;font-weight:normal;font-stretch:normal;font-size:31.0938px;font-family:'Noto Sans Mono';-inkscape-font-specification:'Noto Sans Mono, Normal';font-variant-ligatures:normal;font-variant-caps:normal;font-variant-numeric:normal;font-variant-east-asian:normal;fill:#ffd42a;stroke:none;stroke-width:2.59115">STAMPY S.A.S.</tspan></text></g></g></g></svg>
